<?xml version="1.0" encoding="UTF-8" standalone="no"?>
<!-- Creator: fig2dev Version 3.2.8b -->
<!-- CreationDate: 2025-11-01 17:09:25 -->
<!-- Magnification: 1.05 -->
<svg	xmlns="http://www.w3.org/2000/svg"
	xmlns:xlink="http://www.w3.org/1999/xlink"
	width="368pt" height="109pt"
	viewBox="258 1215 5829 1725">
<g fill="none">
<!-- Line -->
<defs>
<clipPath id="cp0">
	<path clip-rule="evenodd" d="M 258,1215 H 6087 V 2940 H 258 z
		M 795,1535 810,1520 825,1535 817,1433 803,1433z"/>
</clipPath>
</defs>
<polyline points=" 810,2385 810,1440" clip-path="url(#cp0)"
	stroke="#000000" stroke-width="8px"/>
<!-- Forward arrow to point 810,1440 -->
<polygon points=" 825,1535 810,1460 795,1535 810,1520 825,1535"
	stroke="#000000" stroke-width="8px" stroke-miterlimit="8" fill="#000000"/>
<!-- Line -->
<defs>
<clipPath id="cp1">
	<path clip-rule="evenodd" d="M 258,1215 H 6087 V 2940 H 258 z
		M 2335,2235 2350,2250 2335,2265 2437,2257 2437,2243z"/>
</clipPath>
</defs>
<polyline points=" 270,2250 2430,2250" clip-path="url(#cp1)"
	stroke="#000000" stroke-width="8px"/>
<!-- Forward arrow to point 2430,2250 -->
<polygon points=" 2335,2265 2410,2250 2335,2235 2350,2250 2335,2265"
	stroke="#000000" stroke-width="8px" stroke-miterlimit="8" fill="#000000"/>
<!-- Line -->
<defs>
<clipPath id="cp2">
	<path clip-rule="evenodd" d="M 258,1215 H 6087 V 2940 H 258 z
		M 4350,1355 4365,1340 4380,1355 4372,1253 4358,1253z"/>
</clipPath>
</defs>
<polyline points=" 4365,2385 4365,1260" clip-path="url(#cp2)"
	stroke="#000000" stroke-width="8px"/>
<!-- Forward arrow to point 4365,1260 -->
<polygon points=" 4380,1355 4365,1280 4350,1355 4365,1340 4380,1355"
	stroke="#000000" stroke-width="8px" stroke-miterlimit="8" fill="#000000"/>
<!-- Line -->
<defs>
<clipPath id="cp3">
	<path clip-rule="evenodd" d="M 258,1215 H 6087 V 2940 H 258 z
		M 5980,2235 5995,2250 5980,2265 6082,2257 6082,2243z"/>
</clipPath>
</defs>
<polyline points=" 2970,2250 6075,2250" clip-path="url(#cp3)"
	stroke="#000000" stroke-width="8px"/>
<!-- Forward arrow to point 6075,2250 -->
<polygon points=" 5980,2265 6055,2250 5980,2235 5995,2250 5980,2265"
	stroke="#000000" stroke-width="8px" stroke-miterlimit="8" fill="#000000"/>
<!-- Line -->
<polyline points=" 315,1980 319,1978 326,1975 340,1969 359,1960 383,1950 411,1939 440,1927 469,1916
 497,1906 524,1897 548,1890 570,1885 591,1881 610,1879 627,1879 644,1880 660,1883
 676,1887 692,1892 708,1899 725,1906 742,1915 759,1925 777,1935 795,1946 814,1958
 833,1969 852,1980 872,1990 891,2000 911,2009 930,2016 950,2023 970,2028 990,2033
 1009,2035 1029,2037 1049,2037 1071,2036 1093,2035 1117,2032 1141,2028 1166,2023
 1191,2017 1217,2010 1243,2003 1269,1995 1294,1986 1320,1976 1344,1966 1368,1956
 1391,1945 1413,1935 1434,1924 1455,1913 1475,1901 1496,1889 1516,1877 1536,1864
 1557,1852 1577,1838 1598,1825 1618,1812 1639,1799 1659,1787 1679,1775 1698,1764
 1717,1753 1735,1744 1752,1735 1769,1728 1785,1722 1800,1717 1815,1713 1830,1710
 1848,1708 1866,1708 1884,1710 1902,1714 1921,1719 1939,1725 1958,1732 1977,1741
 1995,1750 2013,1760 2031,1770 2047,1780 2063,1789 2078,1798 2093,1807 2108,1815
 2124,1823 2140,1831 2157,1838 2175,1845 2195,1852 2217,1859 2241,1865 2265,1872
 2289,1878 2310,1883 2326,1887 2335,1889 2339,1890 2340,1890"
	stroke="#000000" stroke-width="15px" stroke-linejoin="bevel"/>
<!-- Text -->
<text xml:space="preserve" x="900" y="1575" fill="#000000" font-family="Times" font-style="normal" font-weight="normal" font-size="108" text-anchor="start">x(t)</text>
<!-- Text -->
<text xml:space="preserve" x="2340" y="2205" fill="#000000" font-family="Times" font-style="normal" font-weight="normal" font-size="108" text-anchor="start">t</text>
<!-- Text -->
<text xml:space="preserve" x="5175" y="2430" fill="#000000" font-family="Times" font-style="normal" font-weight="normal" font-size="96" text-anchor="middle">3</text>
<!-- Text -->
<text xml:space="preserve" x="4050" y="2430" fill="#000000" font-family="Times" font-style="normal" font-weight="normal" font-size="96" text-anchor="middle">-1</text>
<!-- Text -->
<text xml:space="preserve" x="3510" y="2430" fill="#000000" font-family="Times" font-style="normal" font-weight="normal" font-size="96" text-anchor="middle">-3</text>
<!-- Text -->
<text xml:space="preserve" x="3780" y="2205" fill="#000000" font-family="Times" font-style="normal" font-weight="normal" font-size="96" text-anchor="middle">-2</text>
<!-- Text -->
<text xml:space="preserve" x="4320" y="2430" fill="#000000" font-family="Times" font-style="normal" font-weight="normal" font-size="96" text-anchor="middle">0</text>
<!-- Text -->
<text xml:space="preserve" x="4635" y="2205" fill="#000000" font-family="Times" font-style="normal" font-weight="normal" font-size="96" text-anchor="middle">1</text>
<!-- Text -->
<text xml:space="preserve" x="4905" y="2205" fill="#000000" font-family="Times" font-style="normal" font-weight="normal" font-size="96" text-anchor="middle">2</text>
<!-- Text -->
<text xml:space="preserve" x="3240" y="2430" fill="#000000" font-family="Times" font-style="normal" font-weight="normal" font-size="96" text-anchor="middle">-4</text>
<!-- Text -->
<text xml:space="preserve" x="5490" y="2430" fill="#000000" font-family="Times" font-style="normal" font-weight="normal" font-size="96" text-anchor="middle">4</text>
<!-- Text -->
<text xml:space="preserve" x="1350" y="2925" fill="#000000" font-family="Times" font-style="normal" font-weight="normal" font-size="108" text-anchor="middle">Se\'nal continua</text>
<!-- Text -->
<text xml:space="preserve" x="4365" y="2925" fill="#000000" font-family="Times" font-style="normal" font-weight="normal" font-size="108" text-anchor="middle">Se\'nal discreta</text>
<!-- Line -->
<defs>
<clipPath id="cp4">
	<path clip-rule="evenodd" d="M 258,1215 H 6087 V 2940 H 258 z
		M 3862,2476 3861,2470 3859,2464 3857,2459 3853,2454 3849,2450 3844,2446 3838,2444 3833,2442 3827,2441 3820,2442 3815,2443 3809,2445 3804,2448 3799,2452 3795,2456 3792,2461 3789,2467 3788,2473 3788,2479 3815,2527 3836,2527z"/>
</clipPath>
</defs>
<polyline points=" 3825,2250 3825,2520" clip-path="url(#cp4)"
	stroke="#000000" stroke-width="15px"/>
<!-- Forward arrow to point 3825,2520 -->
<polygon points=" 3788,2479 3788,2485 3789,2491 3792,2496 3795,2501 3799,2506
 3804,2510 3809,2513 3815,2515 3820,2516 3827,2516 3833,2515 3838,2514 3844,2511
 3849,2508 3853,2504 3857,2499 3859,2493 3861,2488 3862,2482 3862,2476 3861,2470
 3859,2464 3857,2459 3853,2454 3849,2450 3844,2446 3838,2444 3833,2442 3827,2441
 3820,2442 3815,2443 3809,2445 3804,2448 3799,2452 3795,2456 3792,2461 3789,2467
 3788,2473 3788,2479"
	stroke="#000000" stroke-width="8px" stroke-miterlimit="8"/>
<!-- Line -->
<defs>
<clipPath id="cp5">
	<path clip-rule="evenodd" d="M 258,1215 H 6087 V 2940 H 258 z
		M 4328,2024 4329,2030 4331,2036 4333,2041 4337,2046 4341,2050 4346,2054 4352,2056 4357,2058 4363,2059 4370,2058 4375,2057 4381,2055 4386,2052 4391,2048 4395,2044 4398,2039 4401,2033 4402,2027 4403,2021 4376,1973 4355,1973z"/>
</clipPath>
</defs>
<polyline points=" 4365,2250 4365,1980" clip-path="url(#cp5)"
	stroke="#000000" stroke-width="15px"/>
<!-- Forward arrow to point 4365,1980 -->
<polygon points=" 4403,2021 4402,2015 4401,2009 4398,2004 4395,1999 4391,1994
 4386,1990 4381,1987 4375,1985 4370,1984 4363,1984 4357,1985 4352,1986 4346,1989
 4341,1992 4337,1996 4333,2001 4331,2007 4329,2012 4328,2018 4328,2024 4329,2030
 4331,2036 4333,2041 4337,2046 4341,2050 4346,2054 4352,2056 4357,2058 4363,2059
 4370,2058 4375,2057 4381,2055 4386,2052 4391,2048 4395,2044 4398,2039 4401,2033
 4402,2027 4403,2021"
	stroke="#000000" stroke-width="8px" stroke-miterlimit="8"/>
<!-- Line -->
<defs>
<clipPath id="cp6">
	<path clip-rule="evenodd" d="M 258,1215 H 6087 V 2940 H 258 z
		M 4672,2611 4671,2605 4669,2599 4667,2594 4663,2589 4659,2585 4654,2581 4648,2579 4643,2577 4637,2576 4630,2577 4625,2578 4619,2580 4614,2583 4609,2587 4605,2591 4602,2596 4599,2602 4598,2608 4598,2614 4625,2662 4646,2662z"/>
</clipPath>
</defs>
<polyline points=" 4635,2250 4635,2655" clip-path="url(#cp6)"
	stroke="#000000" stroke-width="15px"/>
<!-- Forward arrow to point 4635,2655 -->
<polygon points=" 4598,2614 4598,2620 4599,2626 4602,2631 4605,2636 4609,2641
 4614,2645 4619,2648 4625,2650 4630,2651 4637,2651 4643,2650 4648,2649 4654,2646
 4659,2643 4663,2639 4667,2634 4669,2628 4671,2623 4672,2617 4672,2611 4671,2605
 4669,2599 4667,2594 4663,2589 4659,2585 4654,2581 4648,2579 4643,2577 4637,2576
 4630,2577 4625,2578 4619,2580 4614,2583 4609,2587 4605,2591 4602,2596 4599,2602
 4598,2608 4598,2614"
	stroke="#000000" stroke-width="8px" stroke-miterlimit="8"/>
<!-- Line -->
<defs>
<clipPath id="cp7">
	<path clip-rule="evenodd" d="M 258,1215 H 6087 V 2940 H 258 z
		M 4942,2341 4941,2335 4939,2329 4937,2324 4933,2319 4929,2315 4924,2311 4918,2309 4913,2307 4907,2306 4900,2307 4895,2308 4889,2310 4884,2313 4879,2317 4875,2321 4872,2326 4869,2332 4868,2338 4868,2344 4895,2392 4916,2392z"/>
</clipPath>
</defs>
<polyline points=" 4905,2250 4905,2385" clip-path="url(#cp7)"
	stroke="#000000" stroke-width="15px"/>
<!-- Forward arrow to point 4905,2385 -->
<polygon points=" 4868,2344 4868,2350 4869,2356 4872,2361 4875,2366 4879,2371
 4884,2375 4889,2378 4895,2380 4900,2381 4907,2381 4913,2380 4918,2379 4924,2376
 4929,2373 4933,2369 4937,2364 4939,2358 4941,2353 4942,2347 4942,2341 4941,2335
 4939,2329 4937,2324 4933,2319 4929,2315 4924,2311 4918,2309 4913,2307 4907,2306
 4900,2307 4895,2308 4889,2310 4884,2313 4879,2317 4875,2321 4872,2326 4869,2332
 4868,2338 4868,2344"
	stroke="#000000" stroke-width="8px" stroke-miterlimit="8"/>
<!-- Line -->
<defs>
<clipPath id="cp8">
	<path clip-rule="evenodd" d="M 258,1215 H 6087 V 2940 H 258 z
		M 4058,1709 4059,1715 4061,1721 4063,1726 4067,1731 4071,1735 4076,1739 4082,1741 4087,1743 4093,1744 4100,1743 4105,1742 4111,1740 4116,1737 4121,1733 4125,1729 4128,1724 4131,1718 4132,1712 4133,1706 4106,1658 4085,1658z"/>
</clipPath>
</defs>
<polyline points=" 4095,2250 4095,1665" clip-path="url(#cp8)"
	stroke="#000000" stroke-width="15px"/>
<!-- Forward arrow to point 4095,1665 -->
<polygon points=" 4133,1706 4132,1700 4131,1694 4128,1689 4125,1684 4121,1679
 4116,1675 4111,1672 4105,1670 4100,1669 4093,1669 4087,1670 4082,1671 4076,1674
 4071,1677 4067,1681 4063,1686 4061,1692 4059,1697 4058,1703 4058,1709 4059,1715
 4061,1721 4063,1726 4067,1731 4071,1735 4076,1739 4082,1741 4087,1743 4093,1744
 4100,1743 4105,1742 4111,1740 4116,1737 4121,1733 4125,1729 4128,1724 4131,1718
 4132,1712 4133,1706"
	stroke="#000000" stroke-width="8px" stroke-miterlimit="8"/>
<!-- Line -->
<defs>
<clipPath id="cp9">
	<path clip-rule="evenodd" d="M 258,1215 H 6087 V 2940 H 258 z
		M 3518,2114 3519,2120 3521,2126 3523,2131 3527,2136 3531,2140 3536,2144 3542,2146 3547,2148 3553,2149 3560,2148 3565,2147 3571,2145 3576,2142 3581,2138 3585,2134 3588,2129 3591,2123 3592,2117 3593,2111 3566,2063 3545,2063z"/>
</clipPath>
</defs>
<polyline points=" 3555,2250 3555,2070" clip-path="url(#cp9)"
	stroke="#000000" stroke-width="15px"/>
<!-- Forward arrow to point 3555,2070 -->
<polygon points=" 3593,2111 3592,2105 3591,2099 3588,2094 3585,2089 3581,2084
 3576,2080 3571,2077 3565,2075 3560,2074 3553,2074 3547,2075 3542,2076 3536,2079
 3531,2082 3527,2086 3523,2091 3521,2097 3519,2102 3518,2108 3518,2114 3519,2120
 3521,2126 3523,2131 3527,2136 3531,2140 3536,2144 3542,2146 3547,2148 3553,2149
 3560,2148 3565,2147 3571,2145 3576,2142 3581,2138 3585,2134 3588,2129 3591,2123
 3592,2117 3593,2111"
	stroke="#000000" stroke-width="8px" stroke-miterlimit="8"/>
<!-- Line -->
<defs>
<clipPath id="cp10">
	<path clip-rule="evenodd" d="M 258,1215 H 6087 V 2940 H 258 z
		M 3248,1844 3249,1850 3251,1856 3253,1861 3257,1866 3261,1870 3266,1874 3272,1876 3277,1878 3283,1879 3290,1878 3295,1877 3301,1875 3306,1872 3311,1868 3315,1864 3318,1859 3321,1853 3322,1847 3323,1841 3296,1793 3275,1793z"/>
</clipPath>
</defs>
<polyline points=" 3285,2250 3285,1800" clip-path="url(#cp10)"
	stroke="#000000" stroke-width="15px"/>
<!-- Forward arrow to point 3285,1800 -->
<polygon points=" 3323,1841 3322,1835 3321,1829 3318,1824 3315,1819 3311,1814
 3306,1810 3301,1807 3295,1805 3290,1804 3283,1804 3277,1805 3272,1806 3266,1809
 3261,1812 3257,1816 3253,1821 3251,1827 3249,1832 3248,1838 3248,1844 3249,1850
 3251,1856 3253,1861 3257,1866 3261,1870 3266,1874 3272,1876 3277,1878 3283,1879
 3290,1878 3295,1877 3301,1875 3306,1872 3311,1868 3315,1864 3318,1859 3321,1853
 3322,1847 3323,1841"
	stroke="#000000" stroke-width="8px" stroke-miterlimit="8"/>
<!-- Line -->
<defs>
<clipPath id="cp11">
	<path clip-rule="evenodd" d="M 258,1215 H 6087 V 2940 H 258 z
		M 5138,2069 5139,2075 5141,2081 5143,2086 5147,2091 5151,2095 5156,2099 5162,2101 5167,2103 5173,2104 5180,2103 5185,2102 5191,2100 5196,2097 5201,2093 5205,2089 5208,2084 5211,2078 5212,2072 5213,2066 5186,2018 5165,2018z"/>
</clipPath>
</defs>
<polyline points=" 5175,2250 5175,2025" clip-path="url(#cp11)"
	stroke="#000000" stroke-width="15px"/>
<!-- Forward arrow to point 5175,2025 -->
<polygon points=" 5213,2066 5212,2060 5211,2054 5208,2049 5205,2044 5201,2039
 5196,2035 5191,2032 5185,2030 5180,2029 5173,2029 5167,2030 5162,2031 5156,2034
 5151,2037 5147,2041 5143,2046 5141,2052 5139,2057 5138,2063 5138,2069 5139,2075
 5141,2081 5143,2086 5147,2091 5151,2095 5156,2099 5162,2101 5167,2103 5173,2104
 5180,2103 5185,2102 5191,2100 5196,2097 5201,2093 5205,2089 5208,2084 5211,2078
 5212,2072 5213,2066"
	stroke="#000000" stroke-width="8px" stroke-miterlimit="8"/>
<!-- Line -->
<defs>
<clipPath id="cp12">
	<path clip-rule="evenodd" d="M 258,1215 H 6087 V 2940 H 258 z
		M 5453,1754 5454,1760 5456,1766 5458,1771 5462,1776 5466,1780 5471,1784 5477,1786 5482,1788 5488,1789 5495,1788 5500,1787 5506,1785 5511,1782 5516,1778 5520,1774 5523,1769 5526,1763 5527,1757 5528,1751 5501,1703 5480,1703z"/>
</clipPath>
</defs>
<polyline points=" 5490,2250 5490,1710" clip-path="url(#cp12)"
	stroke="#000000" stroke-width="15px"/>
<!-- Forward arrow to point 5490,1710 -->
<polygon points=" 5528,1751 5527,1745 5526,1739 5523,1734 5520,1729 5516,1724
 5511,1720 5506,1717 5500,1715 5495,1714 5488,1714 5482,1715 5477,1716 5471,1719
 5466,1722 5462,1726 5458,1731 5456,1737 5454,1742 5453,1748 5453,1754 5454,1760
 5456,1766 5458,1771 5462,1776 5466,1780 5471,1784 5477,1786 5482,1788 5488,1789
 5495,1788 5500,1787 5506,1785 5511,1782 5516,1778 5520,1774 5523,1769 5526,1763
 5527,1757 5528,1751"
	stroke="#000000" stroke-width="8px" stroke-miterlimit="8"/>
<!-- Text -->
<text xml:space="preserve" x="4455" y="1350" fill="#000000" font-family="Times" font-style="normal" font-weight="normal" font-size="108" text-anchor="start">x[n]</text>
<!-- Text -->
<text xml:space="preserve" x="5940" y="2160" fill="#000000" font-family="Times" font-style="normal" font-weight="normal" font-size="108" text-anchor="start">n</text>
</g>
</svg>
