<?xml version="1.0" encoding="UTF-8" standalone="no"?>
<!-- Creator: fig2dev Version 3.2.8b -->
<!-- CreationDate: 2025-11-01 17:09:25 -->
<!-- Magnification: 1.05 -->
<svg	xmlns="http://www.w3.org/2000/svg"
	xmlns:xlink="http://www.w3.org/1999/xlink"
	width="99pt" height="25pt"
	viewBox="1200 1428 1560 384">
<g fill="none">
<!-- Line -->
<defs>
<clipPath id="cp0">
	<path clip-rule="evenodd" d="M 1200,1428 H 2760 V 1812 H 1200 z
		M 1540,1590 1570,1620 1540,1650 1717,1627 1717,1613z"/>
</clipPath>
</defs>
<polyline points=" 1260,1620 1710,1620" clip-path="url(#cp0)"
	stroke="#000000" stroke-width="8px"/>
<!-- Forward arrow to point 1710,1620 -->
<polygon points=" 1540,1650 1690,1620 1540,1590 1570,1620 1540,1650"
	stroke="#000000" stroke-width="8px" stroke-miterlimit="8" fill="#000000"/>
<!-- Line -->
<rect x="1710" y="1440" width="540" height="360"
	stroke="#000000" stroke-width="8px"/>
<!-- Line -->
<defs>
<clipPath id="cp1">
	<path clip-rule="evenodd" d="M 1200,1428 H 2760 V 1812 H 1200 z
		M 2530,1590 2560,1620 2530,1650 2707,1627 2707,1613z"/>
</clipPath>
</defs>
<polyline points=" 2250,1620 2700,1620" clip-path="url(#cp1)"
	stroke="#000000" stroke-width="8px"/>
<!-- Forward arrow to point 2700,1620 -->
<polygon points=" 2530,1650 2680,1620 2530,1590 2560,1620 2530,1650"
	stroke="#000000" stroke-width="8px" stroke-miterlimit="8" fill="#000000"/>
<!-- Text -->
<text xml:space="preserve" x="1215" y="1665" fill="#000000" font-family="Times" font-style="normal" font-weight="normal" font-size="144" text-anchor="end">x(t)</text>
<!-- Text -->
<text xml:space="preserve" x="1980" y="1665" fill="#000000" font-family="Times" font-style="normal" font-weight="normal" font-size="120" text-anchor="middle">T</text>
<!-- Text -->
<text xml:space="preserve" x="2745" y="1665" fill="#000000" font-family="Times" font-style="normal" font-weight="normal" font-size="144" text-anchor="start">y(t)</text>
</g>
</svg>
